
<svg xmlns="http://www.w3.org/2000/svg" viewBox="0 0 24 24" fill="none" stroke="currentColor" stroke-width="1.5" stroke-linecap="round">
  <g transform="translate(0, 0)">
    <path d="M211.218,847 C212.146,842.438 216.161,839 221,839 C225.839,839 229.854,842.438 230.782,847 L232.886,847 C232.118,841.359 227.096,837 221,837 C214.904,837 209.882,841.359 209.114,847 L211.218,847 Z M235,849 L207,849 C206.448,849 206,849.447 206,850 C206,850.553 206.448,851 207,851 L235,851 C235.552,851 236,850.553 236,850 C236,849.447 235.552,849 235,849 Z M209,839.414 C209.391,839.805 210.024,839.805 210.414,839.414 C210.805,839.023 210.805,838.391 210.414,838 L209,836.586 C208.609,836.195 207.977,836.195 207.586,836.586 C207.195,836.977 207.195,837.609 207.586,838 L209,839.414 Z M233,839.414 L234.414,838 C234.805,837.609 234.805,836.977 234.414,836.586 C234.023,836.195 233.391,836.195 233,836.586 L231.586,838 C231.195,838.391 231.195,839.023 231.586,839.414 C231.977,839.805 232.609,839.805 233,839.414 Z M221,835 C221.552,835 222,834.553 222,834 L222,832 C222,831.448 221.552,831 221,831 C220.448,831 220,831.448 220,832 L220,834 C220,834.553 220.448,835 221,835 Z" />
  </g>
  <g transform="translate(0, 10)">
    <path d="M523,848 C522.286,846.401 522,845.213 522,843.726 C522,835.593 526.369,833.048 530,831 C532.655,829.749 535.906,829.48 538,830 C533.9,831.926 529.934,838.142 529.934,844.675 C529.934,845.823 530.048,846.928 530.221,848 L523,848 Z M547,848 L532.434,848 C532.172,846.871 532,845.709 532,844.5 C532,837.622 536.483,831.8 542.685,829.772 C540.535,828.646 538.095,828 535.5,828 C526.939,828 520,834.939 520,843.5 C520,845.065 520.237,846.575 520.669,848 L517,848 C516.447,848 516,848.448 516,849 C516,849.553 516.447,850 517,850 L547,850 C547.553,850 548,849.553 548,849 C548,848.448 547.553,848 547,848 Z M535,852 L521,852 C520.447,852 520,852.447 520,853 C520,853.553 520.447,854 521,854 L535,854 C535.553,854 536,853.553 536,853 C536,852.447 535.553,852 535,852 Z M533,856 L523,856 C522.447,856 522,856.448 522,857 C522,857.553 522.447,858 523,858 L533,858 C533.553,858 534,857.553 534,857 C534,856.448 533.553,856 533,856 Z"/>
  </g>
</svg>
